<?xml version="1.0" standalone="no"?>
<!DOCTYPE svg PUBLIC "-//W3C//DTD SVG 20010904//EN"
 "http://www.w3.org/TR/2001/REC-SVG-20010904/DTD/svg10.dtd">
<svg version="1.0" xmlns="http://www.w3.org/2000/svg"
 width="372.000000pt" height="372.000000pt" viewBox="0 0 372.000000 372.000000"
 preserveAspectRatio="xMidYMid meet">
<metadata>
Created by potrace 1.14, written by Peter Selinger 2001-2017
</metadata>
<g transform="translate(0.000000,372.000000) scale(0.100000,-0.100000)"
fill="#000000" stroke="none">
<path d="M0 1860 l0 -1860 1860 0 1860 0 0 529 0 529 -35 -9 c-20 -6 -52 -9
-73 -7 l-37 3 52 17 c86 28 93 41 93 163 0 108 -2 113 -42 106 -5 0 -7 5 -5
11 1 7 -19 20 -44 28 -25 8 -57 23 -72 33 -14 9 -31 17 -37 17 -5 0 -10 5 -10
11 0 5 -4 8 -9 5 -5 -3 -19 2 -32 12 -13 10 -30 17 -36 16 -7 -1 -19 -2 -27
-3 -8 0 -19 -14 -25 -31 -5 -16 -11 -30 -13 -30 -2 0 -2 34 0 76 3 55 1 75 -7
70 -6 -4 -11 -17 -11 -28 0 -12 -3 -18 -7 -15 -3 4 -6 24 -5 44 l1 38 -20 -25
c-19 -23 -20 -33 -14 -132 7 -110 1 -138 -30 -138 -11 0 -85 48 -164 105 -19
14 -44 25 -56 25 -12 0 -89 38 -171 85 -151 86 -186 97 -207 64 -24 -38 -1
-64 123 -139 66 -39 120 -78 120 -86 0 -8 9 -28 21 -43 18 -24 19 -35 12 -72
-7 -36 -13 -45 -33 -47 -33 -4 -50 -28 -50 -70 0 -18 -5 -42 -11 -53 -8 -16
-7 -25 5 -38 17 -19 21 -56 7 -65 -9 -6 -28 34 -65 141 -50 143 -83 193 -128
193 -22 0 -31 -6 -39 -28 -9 -24 -4 -41 46 -142 33 -68 59 -137 65 -170 4 -31
18 -82 29 -115 12 -33 21 -74 21 -93 0 -31 -1 -32 -22 -21 -13 6 -32 20 -44
31 -28 25 -94 36 -94 16 0 -8 5 -19 11 -25 8 -8 7 -17 -3 -32 -16 -26 -58 -29
-58 -3 -1 16 -1 16 -14 0 -17 -23 -106 -26 -106 -4 0 17 -34 31 -51 21 -6 -5
-4 -12 8 -20 15 -11 -36 -14 -322 -14 -294 -1 -380 -4 -380 -11 0 -1 -10 -3
-22 -4 -12 -1 -20 1 -17 6 3 4 -10 8 -28 7 -32 -1 -32 -1 -8 -10 23 -8 22 -8
-8 -5 -18 1 -35 -1 -38 -6 -3 -5 -12 -4 -20 3 -17 14 -151 21 -159 9 -3 -6 1
-7 10 -4 9 4 15 3 14 -2 -3 -21 2 -26 15 -15 11 9 16 9 22 0 5 -8 3 -9 -6 -4
-8 5 -11 4 -7 -2 4 -6 18 -9 32 -8 14 2 28 -1 31 -7 4 -6 -22 -8 -70 -7 -42 2
-76 6 -76 9 0 3 -11 7 -25 8 -14 1 -25 -3 -25 -8 0 -6 -17 -10 -38 -10 -27 0
-39 4 -39 14 0 8 6 12 15 8 9 -3 13 -1 9 5 -4 6 -1 14 5 16 8 3 6 6 -4 6 -10
1 -18 6 -18 12 0 7 47 10 138 10 75 0 174 2 219 4 45 2 111 5 147 6 36 1 63 6
60 11 -3 4 -9 6 -14 3 -4 -3 -20 11 -34 30 -15 19 -32 35 -39 35 -22 1 -82 65
-100 108 -9 23 -25 61 -34 84 -21 50 -20 45 -22 107 -1 52 -26 95 -41 70 -5
-7 -8 1 -8 17 0 16 -2 39 -5 52 -8 31 -10 151 -4 232 2 36 1 76 -2 90 -5 18
-9 6 -13 -44 -3 -38 -11 -72 -17 -76 -7 -4 -16 -20 -20 -36 l-8 -29 -6 25 c-3
14 -9 42 -12 63 -3 20 -11 37 -16 37 -6 0 -8 -9 -4 -19 7 -22 -4 -73 -14 -67
-9 6 -36 -11 -37 -24 -1 -5 -2 -14 -3 -20 -2 -18 -19 -10 -26 13 -6 18 -8 19
-12 5 -2 -9 0 -25 5 -35 6 -10 7 -36 3 -58 l-6 -40 -17 60 c-15 52 -20 61 -42
63 -22 1 -25 -3 -30 -41 -3 -23 -4 -76 -3 -117 2 -41 2 -83 -1 -92 -4 -15 -6
-15 -19 -3 -8 8 -21 15 -29 15 -8 0 -12 5 -9 10 3 6 1 10 -5 10 -6 0 -9 4 -5
9 3 5 1 12 -5 16 -5 3 -10 16 -10 27 0 61 -98 190 -158 208 -20 6 -47 16 -59
22 -13 6 -26 8 -30 5 -3 -4 -12 -2 -19 4 -10 8 -8 22 8 70 17 51 19 70 11 139
l-9 80 41 0 c36 0 46 5 73 39 18 22 32 44 32 49 0 5 16 30 35 55 46 61 129
100 260 123 90 16 103 21 137 55 49 47 179 114 189 97 4 -6 11 -39 14 -72 4
-34 12 -67 17 -73 7 -9 7 -13 -1 -13 -23 0 -11 -72 20 -122 16 -28 29 -52 27
-53 -2 -2 -21 15 -43 37 -22 23 -34 38 -27 34 7 -5 12 -1 12 10 0 16 -1 16
-18 1 -10 -10 -23 -14 -27 -10 -21 18 22 -34 51 -62 22 -21 38 -52 52 -100 23
-77 60 -123 82 -102 9 9 17 5 36 -18 13 -16 27 -38 30 -47 3 -10 13 -18 22
-18 9 0 26 -7 36 -15 17 -13 22 -13 43 0 21 14 25 14 51 -4 35 -26 136 -48
187 -41 l40 5 -54 33 c-67 42 -60 53 11 18 l53 -27 23 28 c12 15 38 47 57 70
21 24 35 52 35 68 0 37 23 76 60 103 17 13 36 35 43 50 6 15 21 43 34 62 25
40 36 121 24 186 -5 24 -5 41 0 38 5 -3 9 -13 9 -22 0 -9 5 -24 10 -32 9 -13
11 -13 20 0 11 18 6 125 -9 163 -15 39 -14 57 4 51 13 -5 13 -2 1 26 -16 39
-10 74 11 66 8 -3 16 -6 19 -6 2 0 1 -6 -2 -14 -3 -8 -1 -24 6 -35 7 -13 7
-27 2 -37 -25 -45 36 -103 79 -75 27 16 108 5 186 -26 52 -20 68 -22 98 -14
57 15 200 -14 311 -64 85 -38 211 -103 269 -140 28 -17 69 -43 93 -58 l42 -27
0 305 0 305 -24 0 c-13 0 -29 7 -36 15 -10 12 -10 15 1 15 11 0 11 2 -1 10
-10 7 -11 10 -2 11 6 1 17 3 22 4 6 1 17 3 25 4 13 1 15 74 15 591 l0 590
-1860 0 -1860 0 0 -1860z m2146 1445 c3 -8 17 -15 30 -15 13 0 24 -4 24 -10 0
-5 -12 -10 -26 -10 -28 0 -98 -29 -90 -38 3 -2 13 -1 23 4 26 11 53 13 53 2 0
-5 -8 -11 -17 -14 -10 -3 -26 -10 -37 -16 -11 -6 -50 -7 -105 -2 -47 4 -90 7
-94 6 -4 -1 -17 3 -28 9 l-21 11 21 22 c15 16 34 23 67 25 25 1 61 10 79 19
43 24 113 28 121 7z m685 -12 c13 -16 12 -17 -3 -4 -10 7 -18 15 -18 17 0 8 8
3 21 -13z m-535 -31 c19 -14 23 -21 14 -22 -9 0 -21 5 -28 12 -7 7 -12 9 -12
5 0 -4 -9 -3 -20 3 -11 6 -20 15 -20 20 0 15 34 6 66 -18z m-56 -72 c0 -5 -5
-10 -11 -10 -5 0 -7 5 -4 10 3 6 8 10 11 10 2 0 4 -4 4 -10z m240 -50 c0 -5 6
-15 13 -22 23 -25 39 -48 34 -48 -10 0 -51 43 -64 67 -11 19 -10 21 2 17 8 -4
15 -10 15 -14z m-688 -11 c-5 -11 -11 -20 -15 -20 -4 1 -12 1 -17 1 -7 0 -7 6
0 20 15 28 42 27 32 -1z m56 -49 c3 -9 -1 -11 -12 -7 -10 4 -25 7 -34 7 -14 0
-14 2 -3 9 19 12 44 7 49 -9z m862 -13 c0 7 6 10 14 7 8 -3 14 -20 14 -40 0
-20 3 -38 6 -41 3 -4 -1 -17 -9 -29 -11 -18 -12 -22 -2 -18 10 4 14 -11 15
-63 0 -37 2 -89 5 -115 2 -26 0 -45 -4 -43 -4 3 -8 -28 -8 -69 l0 -74 32 -7
c18 -4 36 -7 41 -6 5 1 6 -5 2 -14 -4 -11 -2 -14 7 -8 17 11 38 13 32 3 -10
-16 20 -25 92 -26 51 -1 71 2 66 10 -4 6 -1 6 9 -1 8 -7 18 -10 22 -6 10 11
37 12 30 2 -3 -5 -10 -7 -15 -4 -5 3 -6 0 -3 -8 4 -12 -15 -14 -118 -11 -68 2
-141 5 -163 7 -22 2 -46 -1 -53 -6 -22 -17 -29 5 -23 73 4 36 2 85 -2 108 -6
27 -5 59 1 83 6 25 6 39 0 39 -5 0 -6 9 -3 20 4 12 1 28 -6 36 -10 12 -8 22 9
53 22 39 32 93 12 61 -5 -8 -10 -10 -10 -4 0 5 5 15 10 20 8 8 6 15 -5 24 -18
15 -20 34 -2 24 10 -6 10 -4 0 7 -7 7 -13 18 -13 24 0 5 5 3 10 -5 6 -9 10
-11 10 -3z m-118 -34 c29 -28 35 -43 18 -43 -5 0 -10 5 -10 11 0 7 -12 22 -27
35 -16 13 -24 24 -19 24 6 0 23 -12 38 -27z m-735 1 c4 -11 8 -12 13 -4 10 16
40 -15 40 -40 0 -19 -32 -44 -43 -34 -3 3 -8 -3 -11 -13 -6 -18 -48 -43 -72
-43 -7 0 -15 -6 -17 -12 -8 -19 -8 41 0 86 4 28 14 43 37 57 38 23 45 23 53 3z
m-204 -169 c-7 -21 -12 -19 -10 4 0 11 5 18 9 15 4 -3 5 -11 1 -19z m-1150
-62 c15 -21 36 -44 47 -51 11 -7 20 -21 20 -33 0 -13 -4 -18 -12 -13 -7 5 -9
2 -5 -8 3 -10 1 -15 -8 -14 -23 3 -46 29 -40 44 3 10 0 12 -10 8 -8 -3 -14 0
-12 6 1 6 -14 15 -35 20 -42 11 -57 44 -30 64 31 24 58 16 85 -23z m2107 -43
c0 -5 -6 -10 -14 -10 -8 0 -18 5 -21 10 -3 6 3 10 14 10 12 0 21 -4 21 -10z
m-63 -52 c-3 -8 -6 -5 -6 6 -1 11 2 17 5 13 3 -3 4 -12 1 -19z m49 -15 c16
-17 22 -33 18 -45 -3 -11 1 -27 9 -36 19 -22 28 -61 13 -57 -28 6 -44 18 -40
29 3 7 -2 19 -11 26 -13 11 -18 11 -25 1 -4 -8 -16 -11 -29 -6 -26 8 -27 20
-3 35 16 11 16 11 -1 6 -15 -5 -16 -3 -6 15 6 12 19 24 29 26 11 3 16 11 13
19 -8 22 6 17 33 -13z m-113 -53 c3 -11 1 -20 -4 -20 -5 0 -9 9 -9 20 0 11 2
20 4 20 2 0 6 -9 9 -20z m-1824 -82 c5 -13 11 -34 15 -48 5 -19 2 -16 -13 10
-20 34 -26 60 -16 60 3 0 9 -10 14 -22z m2270 -15 c-6 -7 -15 -10 -20 -7 -13
8 -3 21 15 21 12 0 13 -4 5 -14z m193 -29 c7 0 19 5 27 10 11 8 13 8 8 -1 -4
-6 -1 -13 5 -16 7 -2 -11 -5 -39 -5 -31 -1 -53 4 -53 10 0 5 7 8 14 5 11 -4
13 -1 10 11 -5 14 -4 15 5 2 6 -8 16 -15 23 -16z m283 -4 c-3 -4 1 -10 7 -13
7 -2 0 -4 -16 -4 -19 0 -24 2 -15 8 8 5 10 9 6 9 -5 0 -5 5 -2 10 4 6 11 8 16
4 5 -3 7 -9 4 -14z m104 -14 c-3 -3 -11 5 -18 17 -13 21 -12 21 5 5 10 -10 16
-20 13 -22z m-248 6 c-7 -2 -18 1 -23 6 -8 8 -4 9 13 5 13 -4 18 -8 10 -11z
m87 1 c9 -9 4 -11 -26 -8 -20 2 -38 4 -40 4 -2 1 -1 5 2 9 7 12 51 9 64 -5z
m307 -22 c-10 -10 -34 10 -29 24 6 14 8 13 19 -2 8 -10 12 -20 10 -22z m-210
19 c3 -5 1 -10 -4 -10 -6 0 -11 5 -11 10 0 6 2 10 4 10 3 0 8 -4 11 -10z m39
2 c3 -5 -1 -9 -9 -9 -8 0 -12 4 -9 9 3 4 7 8 9 8 2 0 6 -4 9 -8z m-2779 -32
c-3 -5 -1 -11 5 -15 5 -3 10 -14 10 -23 0 -11 -6 -7 -19 13 -18 30 -18 51 0
39 5 -3 7 -9 4 -14z m1872 -12 c-3 -7 -5 -2 -5 12 0 14 2 19 5 13 2 -7 2 -19
0 -25z m136 -22 c-4 -5 -11 -2 -18 7 -7 9 -14 15 -17 12 -2 -3 -5 2 -5 10 0 8
4 12 9 9 4 -3 8 1 8 8 1 7 7 2 14 -12 8 -14 12 -29 9 -34z m-230 3 c3 -11 2
-33 -3 -48 -5 -19 -4 -34 3 -42 7 -8 4 -7 -7 1 -11 8 -22 14 -25 12 -3 -1 -7
22 -9 52 -3 50 -1 54 17 49 10 -3 21 -14 24 -24z m-1724 -72 c49 -85 101 -189
101 -203 0 -8 -6 -14 -13 -14 -17 0 -42 -72 -34 -94 6 -15 -7 -29 -31 -32 -7
-1 -9 3 -5 9 4 6 6 28 4 48 -1 21 5 51 14 68 15 29 13 57 -3 47 -4 -2 -8 8 -8
22 -2 37 -9 70 -16 78 -4 3 -4 -8 -2 -26 3 -18 0 -38 -8 -48 -11 -13 -11 -15
2 -7 12 7 13 6 3 -6 -12 -14 -61 -18 -81 -5 -26 16 -37 -75 -20 -166 3 -16 4
-28 2 -28 -14 0 -34 15 -34 25 0 26 -42 2 -56 -31 -8 -19 -16 -34 -19 -34 -2
0 -14 23 -27 50 -13 28 -28 50 -35 50 -18 0 -43 -29 -43 -50 0 -12 -12 -22
-37 -31 -21 -7 -44 -19 -50 -28 -11 -14 -14 -14 -23 -1 -13 19 -13 47 0 55 6
4 8 10 5 15 -11 17 20 58 80 109 33 28 65 56 70 62 45 45 71 66 98 75 23 8 33
19 37 37 l5 27 45 -23 c25 -14 51 -22 58 -20 15 6 16 45 0 61 -12 12 -19 52
-9 52 3 0 17 -19 30 -43z m1365 17 c14 -15 26 -34 26 -42 0 -13 -2 -13 -13 2
-7 9 -23 22 -36 29 -14 7 -26 18 -29 25 -7 21 24 13 52 -14z m-195 -31 c-1
-38 -1 -38 -9 -9 -8 27 -6 46 6 46 2 0 4 -17 3 -37z m601 -2 c0 -6 -4 -13 -10
-16 -5 -3 -10 1 -10 9 0 9 5 16 10 16 6 0 10 -4 10 -9z m26 -50 c-4 -6 -14
-11 -22 -11 -12 0 -13 4 -3 21 7 14 14 18 21 11 6 -6 7 -15 4 -21z m-1786
-131 c0 -5 -5 -10 -11 -10 -5 0 -7 5 -4 10 3 6 8 10 11 10 2 0 4 -4 4 -10z m9
-172 c11 -10 12 -10 7 -1 -5 8 -2 11 7 7 8 -3 17 -15 20 -26 6 -23 -3 -54 -12
-41 -3 4 -15 13 -25 19 -16 8 -24 6 -40 -12 -27 -30 -79 -36 -84 -11 -5 25 26
57 54 57 13 0 26 5 29 10 8 14 28 13 44 -2z m-294 -28 c9 -16 13 -30 9 -30 -4
0 -1 -7 6 -15 11 -13 10 -14 -4 -9 -9 3 -16 11 -16 17 0 6 -8 19 -17 30 -11
13 -12 17 -4 12 11 -6 13 -4 8 8 -11 28 1 19 18 -13z m-36 -79 c0 -14 -1 -14
-6 -1 -3 8 -10 24 -15 35 -9 20 -9 20 6 1 9 -11 16 -27 15 -35z m1308 -3 c-3
-7 -5 -2 -5 12 0 14 2 19 5 13 2 -7 2 -19 0 -25z m240 -220 c-3 -8 -6 -5 -6 6
-1 11 2 17 5 13 3 -3 4 -12 1 -19z m-1488 -111 c16 -51 30 -107 26 -107 -8 0
-41 77 -38 87 2 6 -3 25 -12 42 -11 22 -12 29 -3 26 7 -3 19 -24 27 -48z
m1647 18 c19 -19 7 -19 -26 0 -20 11 -21 14 -7 15 10 0 25 -7 33 -15z m943
-281 c14 -12 -19 -1 -35 12 -18 14 -18 14 6 3 14 -6 27 -13 29 -15z m-2529 0
c0 -8 -5 -12 -10 -9 -6 4 -8 11 -5 16 9 14 15 11 15 -7z m3084 -20 c12 -32 5
-45 -30 -60 -20 -8 -63 -28 -95 -44 -49 -24 -61 -26 -66 -14 -7 19 10 38 57
63 69 36 85 46 93 59 11 17 34 15 41 -4z m-2173 -91 c0 -52 -5 -93 -15 -118
-9 -21 -18 -36 -21 -33 -2 2 2 53 10 114 8 60 15 113 15 118 0 5 2 7 5 4 3 -3
6 -41 6 -85z m1549 48 c0 -9 -7 -26 -15 -37 -14 -18 -14 -18 -15 8 0 34 10 59
21 52 5 -3 9 -13 9 -23z m120 -16 c7 -8 32 -24 56 -34 36 -16 44 -25 49 -54 4
-19 1 -61 -6 -93 -6 -33 -12 -96 -13 -141 -1 -80 -14 -131 -15 -57 -1 83 -9
165 -18 176 -5 7 -8 32 -7 55 1 34 -3 42 -19 47 -26 7 -40 -2 -33 -21 3 -8 1
-11 -4 -8 -6 3 -11 -1 -11 -9 -3 -30 -4 -34 -13 -43 -5 -5 -6 -3 -2 5 10 16 1
15 -13 -2 -9 -11 -9 -16 0 -22 8 -5 9 -3 4 6 -5 8 -4 11 3 6 6 -4 9 -13 6 -21
-4 -8 -10 -12 -15 -9 -5 3 -6 -2 -3 -11 4 -8 2 -21 -3 -28 -5 -6 -8 -34 -8
-60 1 -45 -1 -49 -27 -54 -15 -3 -25 -9 -22 -14 3 -5 0 -9 -6 -9 -6 0 -15 -10
-20 -22 -7 -18 -9 -8 -9 39 -1 52 2 64 19 73 13 7 20 21 20 42 0 17 7 39 15
48 12 13 13 30 7 81 -8 66 -1 99 27 133 17 20 45 21 61 1z m-250 -311 c0 -8
-4 -12 -10 -9 -5 3 -10 10 -10 16 0 5 5 9 10 9 6 0 10 -7 10 -16z m38 -129
c-1 -52 -7 -95 -12 -95 -5 0 -6 28 -3 68 4 37 7 79 7 95 0 15 3 27 6 27 3 0 4
-43 2 -95z m-2340 -88 c12 -1 22 -5 22 -9 0 -8 -129 -15 -141 -7 -13 8 -80 -2
-74 -11 3 -5 23 -8 44 -8 22 0 44 -3 50 -6 6 -4 11 -1 11 6 0 8 3 9 8 2 4 -5
24 -11 45 -12 29 -2 37 0 31 10 -5 10 -4 10 6 1 8 -7 12 -15 9 -17 -4 -4 -247
-8 -361 -6 -30 0 -40 20 -10 20 16 1 16 1 0 10 -9 6 -28 11 -42 12 -31 3 -25
11 12 16 15 2 28 5 30 6 3 4 321 -2 360 -7z m-471 -3 c-3 -3 -12 -4 -19 -1 -8
3 -5 6 6 6 11 1 17 -2 13 -5z m1803 -14 c0 -5 -2 -10 -4 -10 -3 0 -8 5 -11 10
-3 6 -1 10 4 10 6 0 11 -4 11 -10z m6 -33 c4 -4 -55 -6 -132 -5 -130 2 -133 2
-49 7 116 8 172 7 181 -2z m131 -3 c-7 -8 -97 -7 -105 1 -3 3 21 5 53 5 32 0
56 -3 52 -6z m103 2 c0 -7 -50 -13 -55 -7 -2 4 10 8 26 9 16 1 29 1 29 -2z"/>
<path d="M2827 2537 c-3 -8 3 -14 15 -14 16 -2 17 1 8 13 -15 17 -17 17 -23 1z"/>
<path d="M495 2770 c-3 -5 -5 -10 -3 -11 33 -8 38 -7 27 7 -14 17 -16 17 -24
4z"/>
<path d="M510 2716 c0 -2 8 -10 18 -17 15 -13 16 -12 3 4 -13 16 -21 21 -21
13z"/>
<path d="M543 2193 c-27 -18 -31 -38 -5 -25 9 5 25 8 34 7 23 -4 35 15 17 26
-18 11 -20 11 -46 -8z"/>
<path d="M260 659 c0 -5 5 -7 10 -4 6 3 10 8 10 11 0 2 -4 4 -10 4 -5 0 -10
-5 -10 -11z"/>
<path d="M1182 1913 c-6 -2 -10 -9 -6 -14 3 -5 -4 -9 -15 -9 -12 0 -21 -4 -21
-10 0 -5 -7 -10 -15 -10 -8 0 -15 -4 -15 -10 0 -13 1 -13 51 10 24 11 67 20
94 20 46 1 49 2 31 15 -19 14 -77 19 -104 8z"/>
<path d="M2533 1823 c-13 -17 -23 -36 -23 -42 0 -6 -4 -11 -10 -11 -5 0 -13
-12 -16 -27 -11 -44 -34 -84 -74 -127 -56 -60 -129 -150 -125 -154 2 -2 11 1
22 7 10 5 30 12 45 16 20 4 37 22 65 70 21 35 48 68 60 74 35 16 85 126 81
180 l-3 46 -22 -32z"/>
<path d="M1671 1549 c-1 -17 47 -160 48 -144 1 13 -24 103 -37 135 -6 14 -11
18 -11 9z"/>
<path d="M1952 1395 c0 -11 4 -33 8 -50 7 -27 8 -27 8 -5 0 14 -4 36 -8 50 -6
20 -8 21 -8 5z"/>
<path d="M1555 1191 c-6 -11 13 -26 22 -17 4 3 1 6 -6 6 -7 0 -9 5 -6 10 3 6
4 10 1 10 -3 0 -7 -4 -11 -9z"/>
<path d="M1992 1165 c0 -16 2 -22 5 -12 2 9 2 23 0 30 -3 6 -5 -1 -5 -18z"/>
<path d="M2007 1070 c3 -36 9 -92 13 -125 l7 -60 1 65 c1 36 -5 92 -13 125
l-15 60 7 -65z"/>
<path d="M2020 880 c-8 -23 -8 -53 -1 -72 8 -21 10 -21 16 -5 4 10 3 32 -3 50
-5 18 -11 30 -12 27z"/>
<path d="M2408 833 c7 -3 16 -2 19 1 4 3 -2 6 -13 5 -11 0 -14 -3 -6 -6z"/>
<path d="M1350 681 c0 -15 18 -23 25 -12 3 6 13 7 23 4 9 -3 14 -3 11 1 -11
11 -59 17 -59 7z"/>
</g>
</svg>
